<svg width="1009" height="670" viewBox="0 0 1009 670" fill="none" xmlns="http://www.w3.org/2000/svg">
<rect x="731.913" y="97.4795" width="254.001" height="255.102" transform="rotate(45 731.913 97.4795)" fill="white"/>
<rect x="330.644" y="143.654" width="189.855" height="190.678" transform="rotate(45 330.644 143.654)" fill="white"/>
<rect x="241.493" y="402.744" width="70.3409" height="70.6457" transform="rotate(45 241.493 402.744)" fill="white"/>
<rect x="129.477" y="402.744" width="70.3409" height="70.6457" transform="rotate(45 129.477 402.744)" fill="white"/>
<rect x="101.636" y="201.8" width="67.5516" height="67.5516" transform="rotate(45 101.636 201.8)" fill="white"/>
<rect x="578.396" y="512.195" width="70.3409" height="70.6457" transform="rotate(45 578.396 512.195)" fill="white"/>
<rect x="636.541" y="569.486" width="70.3409" height="70.6457" transform="rotate(45 636.541 569.486)" fill="white"/>
<rect x="693.832" y="512.195" width="70.3409" height="70.6457" transform="rotate(45 693.832 512.195)" fill="white"/>
<rect x="924.351" y="96.6245" width="119.712" height="119.712" transform="rotate(45 924.351 96.6245)" fill="white"/>
<rect x="924.341" y="289.873" width="119.712" height="119.712" transform="rotate(45 924.341 289.873)" fill="white"/>
<rect x="826.862" y="383.077" width="119.712" height="119.712" transform="rotate(45 826.862 383.077)" fill="white"/>
<rect x="636.178" y="384.788" width="119.712" height="119.712" transform="rotate(45 636.178 384.788)" fill="white"/>
<rect x="539.553" y="289.873" width="119.712" height="119.712" transform="rotate(45 539.553 289.873)" fill="white"/>
<rect x="826.866" width="119.712" height="119.712" transform="rotate(45 826.866 0)" fill="white"/>
<rect x="636.178" width="119.712" height="119.712" transform="rotate(45 636.178 0)" fill="white"/>
<rect x="185.416" y="287.308" width="110.58" height="111.06" transform="rotate(45 185.416 287.308)" fill="white"/>
<rect x="185.416" y="116.292" width="110.58" height="111.06" transform="rotate(45 185.416 116.292)" fill="white"/>
<rect x="47.7662" y="147.074" width="67.5516" height="67.5516" transform="rotate(45 47.7662 147.074)" fill="white"/>
<line x1="454.904" y1="277.612" x2="558.369" y2="277.612" stroke="white" stroke-width="4"/>
<line x1="60.7109" y1="194.669" x2="164.176" y2="194.669" stroke="white" stroke-width="4"/>
<line x1="580.898" y1="332.923" x2="600.565" y2="313.257" stroke="white" stroke-width="4"/>
<line x1="769.871" y1="143.095" x2="789.538" y2="123.428" stroke="white" stroke-width="4"/>
<line x1="671.537" y1="431.258" x2="691.203" y2="411.591" stroke="white" stroke-width="4"/>
<line x1="594.579" y1="542.419" x2="614.246" y2="522.752" stroke="white" stroke-width="4"/>
<line x1="145.66" y1="433.823" x2="165.327" y2="414.156" stroke="white" stroke-width="4"/>
<line x1="215.777" y1="337.199" x2="235.444" y2="317.532" stroke="white" stroke-width="4"/>
<line x1="118.297" y1="233.734" x2="137.964" y2="214.067" stroke="white" stroke-width="4"/>
<line x1="860.51" y1="241.43" x2="880.177" y2="221.763" stroke="white" stroke-width="4"/>
<line x1="867.614" y1="320.097" x2="887.281" y2="339.764" stroke="white" stroke-width="4"/>
<line x1="771.844" y1="411.591" x2="791.511" y2="431.258" stroke="white" stroke-width="4"/>
<line x1="654.698" y1="522.752" x2="674.365" y2="542.419" stroke="white" stroke-width="4"/>
<line x1="202.359" y1="414.156" x2="222.026" y2="433.823" stroke="white" stroke-width="4"/>
<line x1="218.605" y1="232.024" x2="238.272" y2="251.69" stroke="white" stroke-width="4"/>
<line x1="121.126" y1="156.776" x2="140.793" y2="176.443" stroke="white" stroke-width="4"/>
<line x1="635.892" y1="575.922" x2="635.892" y2="548.108" stroke="white" stroke-width="4"/>
<line x1="675.22" y1="126.848" x2="694.887" y2="146.515" stroke="white" stroke-width="4"/>
<g clip-path="url(#clip0_42_866)">
<path fill-rule="evenodd" clip-rule="evenodd" d="M139.379 187.689L172.076 219.757L186.198 205.895L186.104 205.66H175.339L173.335 210.611H165.965L177.226 185.136H184.332L191.317 200.889L204.773 187.698L172.076 155.625L139.379 187.689ZM180.725 192.198L184.003 200.349H177.444L180.725 192.198Z" fill="#8A3D36"/>
<path d="M196.502 200.801H199.018V210.62H196.502V200.801ZM205.172 203.327C205.795 203.319 206.408 203.479 206.948 203.79C207.483 204.092 207.92 204.539 208.21 205.08C208.536 205.675 208.7 206.345 208.685 207.023C208.699 207.707 208.535 208.383 208.21 208.984C207.913 209.526 207.472 209.974 206.936 210.28C206.394 210.583 205.782 210.739 205.16 210.731C204.793 210.75 204.426 210.692 204.082 210.562C203.738 210.432 203.424 210.232 203.162 209.975V213.179H200.644V203.439H203.041V204.154C203.515 203.597 204.225 203.318 205.172 203.318V203.327ZM204.644 208.741C204.846 208.748 205.048 208.711 205.236 208.633C205.423 208.555 205.591 208.438 205.73 208.29C206.027 207.94 206.18 207.49 206.155 207.032C206.179 206.579 206.027 206.133 205.73 205.789C205.589 205.643 205.421 205.526 205.234 205.447C205.048 205.367 204.847 205.326 204.644 205.326C204.441 205.326 204.24 205.367 204.053 205.447C203.867 205.526 203.698 205.643 203.558 205.789C203.258 206.132 203.105 206.578 203.132 207.032C203.106 207.491 203.259 207.941 203.558 208.29C203.697 208.437 203.865 208.552 204.053 208.629C204.24 208.705 204.442 208.74 204.644 208.732V208.741ZM214.546 203.327C214.939 203.309 215.331 203.371 215.699 203.507C216.068 203.643 216.405 203.852 216.691 204.122C217.241 204.651 217.515 205.449 217.513 206.516V210.62H214.995V206.927C214.995 205.95 214.604 205.461 213.821 205.461C213.626 205.453 213.432 205.487 213.251 205.56C213.07 205.633 212.907 205.744 212.773 205.886C212.491 206.247 212.354 206.699 212.389 207.155V210.623H209.871V200.801H212.389V204.11C212.666 203.848 212.997 203.648 213.357 203.524C213.739 203.387 214.141 203.318 214.546 203.318V203.327ZM222.156 203.327C223.348 203.327 224.257 203.601 224.885 204.148C225.513 204.695 225.826 205.525 225.825 206.637V210.62H223.477V209.694C223.117 210.391 222.41 210.74 221.358 210.74C220.86 210.753 220.367 210.653 219.914 210.447C219.537 210.279 219.215 210.009 218.983 209.667C218.782 209.323 218.681 208.929 218.69 208.53C218.677 208.223 218.741 207.917 218.878 207.641C219.014 207.366 219.218 207.129 219.471 206.953C219.985 206.564 220.787 206.37 221.877 206.37H223.306C223.263 205.612 222.756 205.232 221.783 205.232C221.428 205.235 221.075 205.293 220.738 205.405C220.412 205.497 220.105 205.649 219.834 205.854L218.986 204.148C219.43 203.863 219.919 203.656 220.433 203.538C220.996 203.392 221.575 203.318 222.156 203.318V203.327ZM222.062 209.151C222.333 209.157 222.601 209.084 222.831 208.94C223.057 208.793 223.224 208.573 223.306 208.316V207.695H222.221C221.487 207.695 221.123 207.938 221.123 208.425C221.119 208.526 221.14 208.627 221.183 208.719C221.227 208.81 221.292 208.89 221.372 208.952C221.574 209.091 221.817 209.159 222.062 209.143V209.151Z" fill="#8A3D36"/>
<path d="M229.414 210.611C230.219 210.611 230.872 209.959 230.872 209.155C230.872 208.35 230.219 207.698 229.414 207.698C228.608 207.698 227.955 208.35 227.955 209.155C227.955 209.959 228.608 210.611 229.414 210.611Z" fill="#434D65"/>
</g>
<g clip-path="url(#clip1_42_866)">
<path fill-rule="evenodd" clip-rule="evenodd" d="M137.668 361.297L170.366 393.389L179.69 384.237H165.999V358.742H179.044C182.298 358.742 184.775 359.348 186.475 360.56C187.279 361.083 187.935 361.803 188.381 362.652C188.828 363.5 189.049 364.448 189.025 365.407C189.042 366.563 188.726 367.7 188.116 368.683C187.504 369.656 186.633 370.438 185.6 370.942C186.958 371.381 188.151 372.218 189.025 373.345C189.286 373.681 189.508 374.045 189.689 374.43L203.069 361.297L170.366 329.207L137.668 361.297ZM173.133 368.865V363.949H178.09C180.518 363.949 181.732 364.762 181.732 366.389C181.732 368.016 180.518 368.842 178.09 368.865H173.133ZM182.971 376.457C182.971 378.18 181.708 379.042 179.182 379.042H173.133V373.855H179.182C181.708 373.855 182.971 374.722 182.971 376.457Z" fill="#8A3D36"/>
<path d="M197.19 377.924C197.449 377.596 197.792 377.344 198.182 377.196C198.635 377.022 199.117 376.936 199.603 376.944V379.209C199.413 379.185 199.222 379.171 199.03 379.168C198.793 379.142 198.552 379.17 198.328 379.251C198.103 379.332 197.9 379.463 197.733 379.635C197.567 379.806 197.442 380.014 197.369 380.241C197.295 380.468 197.274 380.709 197.308 380.945V384.243H194.792V377.059H197.19V377.924ZM203.647 376.944C204.838 376.944 205.748 377.218 206.376 377.766C207.001 378.305 207.315 379.133 207.315 380.256V384.243H204.967V383.316C204.606 384.01 203.899 384.358 202.849 384.36C202.351 384.372 201.858 384.271 201.405 384.067C201.028 383.899 200.707 383.628 200.477 383.286C200.275 382.941 200.173 382.546 200.184 382.145C200.171 381.838 200.235 381.533 200.372 381.257C200.508 380.982 200.712 380.746 200.964 380.57C201.487 380.193 202.291 380.003 203.377 380.001H204.806C204.765 379.24 204.257 378.861 203.283 378.863C202.928 378.864 202.575 378.921 202.238 379.033C201.912 379.126 201.607 379.279 201.337 379.485L200.489 377.774C200.932 377.49 201.42 377.285 201.933 377.167C202.493 377.018 203.07 376.941 203.65 376.938L203.647 376.944ZM203.565 382.764C203.836 382.77 204.103 382.696 204.334 382.553C204.559 382.406 204.726 382.187 204.809 381.931V381.309H203.723C202.992 381.309 202.623 381.553 202.623 382.037C202.619 382.139 202.641 382.241 202.685 382.333C202.73 382.426 202.796 382.506 202.878 382.568C203.078 382.71 203.32 382.779 203.565 382.764ZM216.355 377.059L213.385 384.237H210.79L207.835 377.059H210.418L212.131 381.444L213.945 377.061L216.355 377.059ZM220.414 384.354C219.693 384.365 218.98 384.202 218.336 383.879C217.892 383.646 217.499 383.326 217.183 382.937C216.867 382.548 216.633 382.099 216.495 381.617C216.358 381.135 216.32 380.63 216.384 380.132C216.449 379.635 216.613 379.156 216.868 378.725C217.218 378.163 217.719 377.71 218.312 377.416C218.965 377.102 219.681 376.938 220.406 376.938C221.131 376.938 221.847 377.102 222.5 377.416C223.096 377.706 223.597 378.16 223.944 378.725C224.293 379.3 224.472 379.962 224.461 380.634C224.471 381.31 224.292 381.974 223.944 382.553C223.595 383.12 223.095 383.58 222.5 383.879C221.85 384.203 221.131 384.366 220.405 384.354H220.414ZM220.414 382.356C220.616 382.363 220.818 382.326 221.005 382.248C221.193 382.17 221.361 382.053 221.499 381.905C221.799 381.552 221.952 381.097 221.925 380.634C221.953 380.179 221.8 379.731 221.499 379.388C221.211 379.1 220.821 378.939 220.414 378.939C220.006 378.939 219.616 379.1 219.328 379.388C219.031 379.733 218.879 380.18 218.905 380.634C218.879 381.096 219.03 381.551 219.328 381.905C219.465 382.052 219.632 382.168 219.818 382.246C220.004 382.323 220.204 382.361 220.405 382.356H220.414Z" fill="#8A3D36"/>
<path d="M227.704 384.237C228.509 384.237 229.162 383.584 229.162 382.779C229.162 381.974 228.509 381.321 227.704 381.321C226.898 381.321 226.245 381.974 226.245 382.779C226.245 383.584 226.898 384.237 227.704 384.237Z" fill="#434D65"/>
</g>
<g clip-path="url(#clip2_42_866)">
<path fill-rule="evenodd" clip-rule="evenodd" d="M106.214 258.92V248.23H101.897V253.962H96.0123V248.23H91.6971V263.489H96.0123V257.534H101.897V263.159L95.6611 269.285L76.1023 250.077L95.6611 230.873L115.218 250.077L106.214 258.92Z" fill="#8A3D36"/>
<path d="M122.353 257.889V263.767H123.859V257.889H122.353ZM121.665 261.623C121.676 261.207 121.568 260.796 121.354 260.438C121.162 260.106 120.875 259.838 120.531 259.669C120.17 259.485 119.77 259.391 119.365 259.395C118.943 259.39 118.526 259.489 118.152 259.685C117.797 259.865 117.501 260.142 117.297 260.484C117.094 260.826 116.992 261.219 117.004 261.616C116.993 262.021 117.1 262.421 117.312 262.766C117.525 263.111 117.833 263.387 118.199 263.56C118.612 263.757 119.066 263.855 119.523 263.844C120.327 263.844 120.937 263.61 121.354 263.142L120.562 262.318C120.428 262.44 120.272 262.536 120.102 262.601C119.934 262.664 119.755 262.694 119.576 262.689C119.333 262.699 119.094 262.638 118.886 262.513C118.705 262.394 118.575 262.212 118.521 262.002H121.644C121.651 261.751 121.665 261.634 121.665 261.623ZM118.494 261.205C118.526 260.997 118.63 260.805 118.787 260.665C118.953 260.531 119.161 260.462 119.374 260.468C119.584 260.461 119.789 260.531 119.951 260.665C120.113 260.804 120.22 260.995 120.253 261.205H118.494ZM116.444 262.536C116.308 262.628 116.147 262.675 115.984 262.67C115.923 262.672 115.862 262.663 115.805 262.642C115.747 262.621 115.695 262.588 115.65 262.547C115.567 262.443 115.526 262.312 115.533 262.18V260.753H116.514V259.629H115.52V258.509H114.014V259.629H113.387V260.753H114.014V262.196C114.014 262.742 114.165 263.149 114.465 263.424C114.765 263.7 115.197 263.837 115.757 263.837C115.952 263.838 116.146 263.817 116.337 263.776C116.501 263.742 116.658 263.683 116.804 263.6L116.444 262.536ZM112.845 260.468C112.639 260.129 112.339 259.857 111.981 259.685C111.591 259.494 111.163 259.395 110.728 259.395C110.294 259.395 109.866 259.494 109.476 259.685C109.116 259.861 108.814 260.136 108.606 260.478C108.398 260.821 108.293 261.216 108.303 261.616C108.293 262.019 108.4 262.417 108.609 262.761C108.818 263.106 109.122 263.383 109.485 263.56C109.874 263.747 110.301 263.844 110.733 263.844C111.165 263.844 111.592 263.747 111.981 263.56C112.338 263.382 112.638 263.107 112.845 262.766C113.053 262.419 113.16 262.021 113.154 261.616C113.161 261.211 113.052 260.813 112.839 260.468H112.845ZM111.379 262.371C111.206 262.543 110.972 262.64 110.728 262.64C110.485 262.64 110.251 262.543 110.078 262.371C109.9 262.158 109.809 261.885 109.825 261.607C109.813 261.34 109.903 261.077 110.078 260.874C110.163 260.787 110.264 260.719 110.376 260.672C110.487 260.625 110.607 260.601 110.728 260.601C110.849 260.601 110.969 260.625 111.081 260.672C111.193 260.719 111.294 260.787 111.379 260.874C111.556 261.079 111.646 261.345 111.632 261.616C111.644 261.891 111.552 262.161 111.374 262.371H111.379Z" fill="#8A3D36"/>
<path d="M125.68 263.763C126.162 263.763 126.552 263.373 126.552 262.891C126.552 262.409 126.162 262.018 125.68 262.018C125.198 262.018 124.807 262.409 124.807 262.891C124.807 263.373 125.198 263.763 125.68 263.763Z" fill="#434D65"/>
</g>
<g clip-path="url(#clip3_42_866)">
<path fill-rule="evenodd" clip-rule="evenodd" d="M215.481 452.348L237.322 473.735L243.792 467.403C243.009 467.548 242.215 467.622 241.42 467.622C239.745 467.648 238.09 467.265 236.599 466.505C235.206 465.783 234.04 464.691 233.229 463.35C232.431 461.961 232.012 460.387 232.012 458.786C232.012 457.185 232.431 455.612 233.229 454.222C234.039 452.883 235.212 451.799 236.613 451.094C238.124 450.317 239.804 449.925 241.504 449.953C242.971 449.93 244.428 450.202 245.787 450.754C247.013 451.258 248.099 452.049 248.952 453.061L245.886 455.827C244.733 454.565 243.353 453.933 241.747 453.933C240.286 453.933 239.11 454.378 238.218 455.268C237.327 456.158 236.881 457.331 236.879 458.787C236.865 459.666 237.075 460.535 237.489 461.311C237.886 462.031 238.476 462.628 239.193 463.033C239.962 463.448 240.826 463.658 241.7 463.641C242.598 463.646 243.487 463.455 244.303 463.082V458.422H248.563V462.723L259.15 452.361L237.322 430.962L215.481 452.348Z" fill="#8A3D36"/>
<path d="M254.143 467.671C253.661 467.677 253.184 467.568 252.753 467.352C252.349 467.155 252.01 466.847 251.776 466.463C251.542 466.08 251.423 465.638 251.434 465.19C251.423 464.744 251.54 464.304 251.773 463.922C252.005 463.541 252.343 463.235 252.745 463.039C253.181 462.829 253.659 462.721 254.143 462.721C254.627 462.721 255.105 462.829 255.541 463.039C255.94 463.232 256.275 463.535 256.505 463.913C256.74 464.295 256.859 464.736 256.85 465.184C256.858 465.634 256.738 466.078 256.505 466.464C256.273 466.843 255.939 467.148 255.541 467.346C255.108 467.565 254.628 467.676 254.143 467.671V467.671ZM254.143 466.337C254.278 466.342 254.413 466.317 254.538 466.266C254.663 466.214 254.776 466.136 254.868 466.038C255.068 465.802 255.169 465.498 255.153 465.19C255.169 464.887 255.067 464.59 254.868 464.361C254.773 464.265 254.66 464.189 254.536 464.138C254.411 464.086 254.278 464.059 254.143 464.059C254.008 464.059 253.874 464.086 253.75 464.138C253.625 464.189 253.512 464.265 253.418 464.361C253.217 464.589 253.115 464.887 253.133 465.19C253.115 465.498 253.217 465.802 253.418 466.038C253.51 466.136 253.623 466.213 253.748 466.264C253.873 466.315 254.008 466.338 254.143 466.333V466.337ZM257.631 461.041H259.313V467.59H257.631V461.041ZM262.238 462.982H263.379V464.236H262.281V467.59H260.599V464.236H259.901V462.982H260.599V462.859C260.586 462.605 260.625 462.35 260.715 462.112C260.806 461.873 260.944 461.656 261.122 461.473C261.323 461.295 261.556 461.158 261.81 461.07C262.064 460.982 262.332 460.945 262.6 460.961C262.808 460.961 263.016 460.982 263.22 461.024C263.395 461.059 263.563 461.125 263.716 461.219L263.298 462.392C263.146 462.302 262.972 462.253 262.794 462.251C262.718 462.247 262.641 462.259 262.57 462.286C262.498 462.314 262.433 462.356 262.379 462.41C262.276 462.543 262.225 462.709 262.238 462.877V462.982Z" fill="#8A3D36"/>
<path d="M264.959 467.592C265.497 467.592 265.933 467.157 265.933 466.621C265.933 466.084 265.497 465.649 264.959 465.649C264.42 465.649 263.984 466.084 263.984 466.621C263.984 467.157 264.42 467.592 264.959 467.592Z" fill="#434D65"/>
</g>
<g clip-path="url(#clip4_42_866)">
<path d="M143.267 466.615C142.8 466.622 142.339 466.517 141.922 466.307C141.635 466.157 141.381 465.949 141.177 465.698C140.972 465.446 140.821 465.155 140.732 464.843C140.643 464.531 140.619 464.204 140.66 463.882C140.701 463.561 140.808 463.251 140.973 462.971C141.201 462.608 141.524 462.314 141.907 462.123C142.33 461.92 142.793 461.815 143.262 461.815C143.731 461.815 144.194 461.92 144.617 462.123C145.002 462.311 145.326 462.605 145.551 462.971C145.776 463.343 145.892 463.771 145.885 464.206C145.892 464.643 145.776 465.074 145.551 465.449C145.326 465.817 145.002 466.114 144.617 466.307C144.198 466.516 143.735 466.622 143.267 466.615V466.615ZM143.267 465.32C143.398 465.324 143.529 465.301 143.65 465.25C143.772 465.2 143.881 465.125 143.971 465.03C144.164 464.8 144.262 464.505 144.245 464.206C144.261 463.912 144.163 463.623 143.971 463.4C143.879 463.308 143.769 463.234 143.649 463.184C143.528 463.134 143.398 463.108 143.268 463.108C143.137 463.108 143.008 463.134 142.887 463.184C142.766 463.234 142.656 463.308 142.564 463.4C142.373 463.623 142.275 463.912 142.291 464.206C142.274 464.505 142.371 464.8 142.564 465.03C142.654 465.126 142.762 465.202 142.884 465.253C143.005 465.304 143.135 465.329 143.267 465.326V465.32ZM149.46 466.537L148.629 465.32L147.736 466.537H145.971L147.736 464.215L146.028 461.891H147.864L148.686 463.066L149.544 461.891H151.266L149.557 464.154L151.333 466.537H149.46Z" fill="#8A3D36"/>
<path d="M152.971 466.539C153.492 466.539 153.915 466.117 153.915 465.596C153.915 465.074 153.492 464.652 152.971 464.652C152.45 464.652 152.028 465.074 152.028 465.596C152.028 466.117 152.45 466.539 152.971 466.539Z" fill="#434D65"/>
<path fill-rule="evenodd" clip-rule="evenodd" d="M103.465 451.733L124.619 472.505L127.769 469.412V465.295H127.79V450.208H140.732V453.815H132.457V457.446H139.743H139.953L145.773 451.731L124.619 430.958L103.465 451.733ZM136.283 461.052H132.457V464.807L136.283 461.052Z" fill="#8A3D36"/>
</g>
<path d="M680.574 567.502H674.974L673.87 570.094H671.726L676.766 558.894H678.814L683.87 570.094H681.694L680.574 567.502ZM679.886 565.87L677.774 560.974L675.678 565.87H679.886ZM690.16 569.63C689.925 569.822 689.637 569.966 689.296 570.062C688.965 570.158 688.613 570.206 688.24 570.206C687.301 570.206 686.576 569.961 686.064 569.47C685.552 568.979 685.296 568.265 685.296 567.326V563.214H683.888V561.614H685.296V559.662H687.296V561.614H689.584V563.214H687.296V567.278C687.296 567.694 687.397 568.014 687.6 568.238C687.803 568.451 688.096 568.558 688.48 568.558C688.928 568.558 689.301 568.441 689.6 568.206L690.16 569.63ZM691.805 558.222H693.805V570.094H691.805V558.222ZM699.694 561.454C700.953 561.454 701.913 561.758 702.574 562.366C703.246 562.963 703.582 563.87 703.582 565.086V570.094H701.694V569.054C701.449 569.427 701.097 569.715 700.638 569.918C700.19 570.11 699.646 570.206 699.006 570.206C698.366 570.206 697.806 570.099 697.326 569.886C696.846 569.662 696.473 569.358 696.206 568.974C695.95 568.579 695.822 568.137 695.822 567.646C695.822 566.878 696.105 566.265 696.67 565.806C697.246 565.337 698.148 565.102 699.374 565.102H701.582V564.974C701.582 564.377 701.401 563.918 701.038 563.598C700.686 563.278 700.158 563.118 699.454 563.118C698.974 563.118 698.5 563.193 698.03 563.342C697.572 563.491 697.182 563.699 696.862 563.966L696.078 562.51C696.526 562.169 697.065 561.907 697.694 561.726C698.324 561.545 698.99 561.454 699.694 561.454ZM699.422 568.75C699.924 568.75 700.366 568.638 700.75 568.414C701.145 568.179 701.422 567.849 701.582 567.422V566.43H699.518C698.366 566.43 697.79 566.809 697.79 567.566C697.79 567.929 697.934 568.217 698.222 568.43C698.51 568.643 698.91 568.75 699.422 568.75ZM708.789 570.206C708.096 570.206 707.418 570.115 706.757 569.934C706.096 569.753 705.568 569.523 705.173 569.246L705.941 567.726C706.325 567.982 706.784 568.19 707.317 568.35C707.861 568.499 708.394 568.574 708.917 568.574C710.112 568.574 710.709 568.259 710.709 567.63C710.709 567.331 710.554 567.123 710.245 567.006C709.946 566.889 709.461 566.777 708.789 566.67C708.085 566.563 707.509 566.441 707.061 566.302C706.624 566.163 706.24 565.923 705.909 565.582C705.589 565.23 705.429 564.745 705.429 564.126C705.429 563.315 705.765 562.67 706.437 562.19C707.12 561.699 708.037 561.454 709.189 561.454C709.776 561.454 710.362 561.523 710.949 561.662C711.536 561.79 712.016 561.966 712.389 562.19L711.621 563.71C710.896 563.283 710.08 563.07 709.173 563.07C708.586 563.07 708.138 563.161 707.829 563.342C707.53 563.513 707.381 563.742 707.381 564.03C707.381 564.35 707.541 564.579 707.861 564.718C708.192 564.846 708.698 564.969 709.381 565.086C710.064 565.193 710.624 565.315 711.061 565.454C711.498 565.593 711.872 565.827 712.181 566.158C712.501 566.489 712.661 566.958 712.661 567.566C712.661 568.366 712.314 569.006 711.621 569.486C710.928 569.966 709.984 570.206 708.789 570.206Z" fill="black"/>
<path d="M619.298 623.648H613.698L612.594 626.24H610.45L615.49 615.04H617.538L622.594 626.24H620.418L619.298 623.648ZM618.61 622.016L616.498 617.12L614.402 622.016H618.61ZM628.562 617.6C629.394 617.6 630.135 617.781 630.786 618.144C631.447 618.506 631.965 619.018 632.338 619.68C632.711 620.341 632.898 621.104 632.898 621.968C632.898 622.832 632.711 623.6 632.338 624.272C631.965 624.933 631.447 625.445 630.786 625.808C630.135 626.17 629.394 626.352 628.562 626.352C627.41 626.352 626.498 625.968 625.826 625.2V629.344H623.826V617.696H625.73V618.816C626.061 618.41 626.466 618.106 626.946 617.904C627.437 617.701 627.975 617.6 628.562 617.6ZM628.338 624.64C629.074 624.64 629.677 624.394 630.146 623.904C630.626 623.413 630.866 622.768 630.866 621.968C630.866 621.168 630.626 620.522 630.146 620.032C629.677 619.541 629.074 619.296 628.338 619.296C627.858 619.296 627.426 619.408 627.042 619.632C626.658 619.845 626.354 620.154 626.13 620.56C625.906 620.965 625.794 621.434 625.794 621.968C625.794 622.501 625.906 622.97 626.13 623.376C626.354 623.781 626.658 624.096 627.042 624.32C627.426 624.533 627.858 624.64 628.338 624.64ZM638.635 626.352C637.771 626.352 636.992 626.165 636.299 625.792C635.605 625.418 635.061 624.901 634.667 624.24C634.283 623.568 634.091 622.81 634.091 621.968C634.091 621.125 634.283 620.373 634.667 619.712C635.061 619.05 635.605 618.533 636.299 618.16C636.992 617.786 637.771 617.6 638.635 617.6C639.509 617.6 640.293 617.786 640.987 618.16C641.68 618.533 642.219 619.05 642.603 619.712C642.997 620.373 643.195 621.125 643.195 621.968C643.195 622.81 642.997 623.568 642.603 624.24C642.219 624.901 641.68 625.418 640.987 625.792C640.293 626.165 639.509 626.352 638.635 626.352ZM638.635 624.64C639.371 624.64 639.979 624.394 640.459 623.904C640.939 623.413 641.179 622.768 641.179 621.968C641.179 621.168 640.939 620.522 640.459 620.032C639.979 619.541 639.371 619.296 638.635 619.296C637.899 619.296 637.291 619.541 636.811 620.032C636.341 620.522 636.107 621.168 636.107 621.968C636.107 622.768 636.341 623.413 636.811 623.904C637.291 624.394 637.899 624.64 638.635 624.64ZM645.107 614.368H647.107V626.24H645.107V614.368ZM649.732 614.368H651.732V626.24H649.732V614.368ZM658.197 626.352C657.333 626.352 656.554 626.165 655.861 625.792C655.168 625.418 654.624 624.901 654.229 624.24C653.845 623.568 653.653 622.81 653.653 621.968C653.653 621.125 653.845 620.373 654.229 619.712C654.624 619.05 655.168 618.533 655.861 618.16C656.554 617.786 657.333 617.6 658.197 617.6C659.072 617.6 659.856 617.786 660.549 618.16C661.242 618.533 661.781 619.05 662.165 619.712C662.56 620.373 662.757 621.125 662.757 621.968C662.757 622.81 662.56 623.568 662.165 624.24C661.781 624.901 661.242 625.418 660.549 625.792C659.856 626.165 659.072 626.352 658.197 626.352ZM658.197 624.64C658.933 624.64 659.541 624.394 660.021 623.904C660.501 623.413 660.741 622.768 660.741 621.968C660.741 621.168 660.501 620.522 660.021 620.032C659.541 619.541 658.933 619.296 658.197 619.296C657.461 619.296 656.853 619.541 656.373 620.032C655.904 620.522 655.669 621.168 655.669 621.968C655.669 622.768 655.904 623.413 656.373 623.904C656.853 624.394 657.461 624.64 658.197 624.64Z" fill="black"/>
<path d="M555.166 567.502H549.566L548.462 570.094H546.318L551.358 558.894H553.406L558.462 570.094H556.286L555.166 567.502ZM554.478 565.87L552.366 560.974L550.27 565.87H554.478ZM561.599 562.798C562.175 561.902 563.188 561.454 564.639 561.454V563.358C564.468 563.326 564.313 563.31 564.175 563.31C563.396 563.31 562.788 563.539 562.351 563.998C561.913 564.446 561.695 565.097 561.695 565.95V570.094H559.695V561.55H561.599V562.798ZM571.784 569.63C571.549 569.822 571.261 569.966 570.92 570.062C570.589 570.158 570.237 570.206 569.864 570.206C568.925 570.206 568.2 569.961 567.688 569.47C567.176 568.979 566.92 568.265 566.92 567.326V563.214H565.512V561.614H566.92V559.662H568.92V561.614H571.208V563.214H568.92V567.278C568.92 567.694 569.021 568.014 569.224 568.238C569.427 568.451 569.72 568.558 570.104 568.558C570.552 568.558 570.925 568.441 571.224 568.206L571.784 569.63ZM581.18 565.87C581.18 566.009 581.169 566.206 581.148 566.462H574.444C574.561 567.091 574.865 567.593 575.356 567.966C575.857 568.329 576.476 568.51 577.212 568.51C578.151 568.51 578.924 568.201 579.532 567.582L580.604 568.814C580.22 569.273 579.735 569.619 579.148 569.854C578.561 570.089 577.9 570.206 577.164 570.206C576.225 570.206 575.399 570.019 574.684 569.646C573.969 569.273 573.415 568.755 573.02 568.094C572.636 567.422 572.444 566.665 572.444 565.822C572.444 564.99 572.631 564.243 573.004 563.582C573.388 562.91 573.916 562.387 574.588 562.014C575.26 561.641 576.017 561.454 576.86 561.454C577.692 561.454 578.433 561.641 579.084 562.014C579.745 562.377 580.257 562.894 580.62 563.566C580.993 564.227 581.18 564.995 581.18 565.87ZM576.86 563.054C576.22 563.054 575.676 563.246 575.228 563.63C574.791 564.003 574.524 564.505 574.428 565.134H579.276C579.191 564.515 578.929 564.014 578.492 563.63C578.055 563.246 577.511 563.054 576.86 563.054ZM593.885 561.454C594.962 561.454 595.816 561.769 596.445 562.398C597.074 563.017 597.389 563.95 597.389 565.198V570.094H595.389V565.454C595.389 564.707 595.224 564.147 594.893 563.774C594.562 563.39 594.088 563.198 593.469 563.198C592.797 563.198 592.258 563.422 591.853 563.87C591.448 564.307 591.245 564.937 591.245 565.758V570.094H589.245V565.454C589.245 564.707 589.08 564.147 588.749 563.774C588.418 563.39 587.944 563.198 587.325 563.198C586.642 563.198 586.098 563.417 585.693 563.854C585.298 564.291 585.101 564.926 585.101 565.758V570.094H583.101V561.55H585.005V562.638C585.325 562.254 585.725 561.961 586.205 561.758C586.685 561.555 587.218 561.454 587.805 561.454C588.445 561.454 589.01 561.577 589.501 561.822C590.002 562.057 590.397 562.409 590.685 562.878C591.037 562.43 591.49 562.083 592.045 561.838C592.6 561.582 593.213 561.454 593.885 561.454ZM599.945 561.55H601.945V570.094H599.945V561.55ZM600.953 560.142C600.59 560.142 600.286 560.03 600.041 559.806C599.795 559.571 599.673 559.283 599.673 558.942C599.673 558.601 599.795 558.318 600.041 558.094C600.286 557.859 600.59 557.742 600.953 557.742C601.315 557.742 601.619 557.854 601.865 558.078C602.11 558.291 602.233 558.563 602.233 558.894C602.233 559.246 602.11 559.545 601.865 559.79C601.63 560.025 601.326 560.142 600.953 560.142ZM607.21 570.206C606.516 570.206 605.839 570.115 605.178 569.934C604.516 569.753 603.988 569.523 603.594 569.246L604.362 567.726C604.746 567.982 605.204 568.19 605.738 568.35C606.282 568.499 606.815 568.574 607.338 568.574C608.532 568.574 609.13 568.259 609.13 567.63C609.13 567.331 608.975 567.123 608.666 567.006C608.367 566.889 607.882 566.777 607.21 566.67C606.506 566.563 605.93 566.441 605.482 566.302C605.044 566.163 604.66 565.923 604.33 565.582C604.01 565.23 603.85 564.745 603.85 564.126C603.85 563.315 604.186 562.67 604.858 562.19C605.54 561.699 606.458 561.454 607.61 561.454C608.196 561.454 608.783 561.523 609.37 561.662C609.956 561.79 610.436 561.966 610.81 562.19L610.042 563.71C609.316 563.283 608.5 563.07 607.594 563.07C607.007 563.07 606.559 563.161 606.25 563.342C605.951 563.513 605.802 563.742 605.802 564.03C605.802 564.35 605.962 564.579 606.282 564.718C606.612 564.846 607.119 564.969 607.802 565.086C608.484 565.193 609.044 565.315 609.482 565.454C609.919 565.593 610.292 565.827 610.602 566.158C610.922 566.489 611.082 566.958 611.082 567.566C611.082 568.366 610.735 569.006 610.042 569.486C609.348 569.966 608.404 570.206 607.21 570.206Z" fill="black"/>
<rect x="106.767" y="87.2185" width="67.5516" height="67.5516" transform="rotate(45 106.767 87.2185)" fill="white"/>
<g clip-path="url(#clip5_42_866)">
<path fill-rule="evenodd" clip-rule="evenodd" d="M22.2322 193.678L41.7761 212.916L47.3493 207.429H40.3095V192.146H52.2681V195.488H44.5793V198.062H51.3524V201.295H44.5793V204.089H50.7437L61.32 193.678L41.7761 174.443L22.2322 193.678Z" fill="#8A3D36"/>
<path d="M56.3133 207.302C55.8717 207.31 55.4346 207.212 55.038 207.017C54.6736 206.843 54.3675 206.566 54.1567 206.221C53.9459 205.876 53.8395 205.477 53.8504 205.072C53.8385 204.669 53.9445 204.27 54.1556 203.927C54.3666 203.583 54.6734 203.309 55.038 203.137C55.4346 202.942 55.8717 202.845 56.3133 202.853C56.7538 202.841 57.189 202.951 57.5711 203.171C57.9137 203.363 58.1795 203.668 58.3237 204.034L57.1606 204.631C57.1009 204.488 57.0075 204.363 56.8884 204.265C56.7694 204.168 56.6283 204.101 56.4775 204.07C56.3266 204.04 56.1707 204.046 56.0231 204.09C55.8756 204.134 55.7409 204.213 55.6309 204.321C55.5403 204.422 55.4705 204.54 55.4256 204.669C55.3808 204.797 55.3617 204.933 55.3696 205.068C55.3542 205.347 55.448 205.62 55.6309 205.83C55.7191 205.918 55.8243 205.988 55.9401 206.034C56.0559 206.08 56.1799 206.102 56.3046 206.099C56.68 206.099 56.9642 205.906 57.1606 205.519L58.3237 206.113C58.1798 206.484 57.9144 206.794 57.5711 206.993C57.187 207.207 56.7527 207.314 56.3133 207.302ZM61.6708 202.856C61.9057 202.845 62.1405 202.882 62.3611 202.964C62.5817 203.045 62.7836 203.171 62.9549 203.333C63.2811 203.649 63.446 204.129 63.446 204.77V207.232H61.9409V205.016C61.9409 204.43 61.707 204.136 61.2392 204.136C61.1229 204.131 61.0068 204.151 60.8988 204.195C60.7908 204.239 60.6933 204.305 60.613 204.39C60.4447 204.607 60.3628 204.879 60.3832 205.153V207.233H58.878V201.342H60.3832V203.326C60.5498 203.17 60.7469 203.05 60.962 202.974C61.1896 202.893 61.4295 202.853 61.6708 202.856V202.856ZM66.6054 207.302C66.1746 207.309 65.7485 207.211 65.3634 207.017C65.0035 206.838 64.7 206.563 64.4863 206.222C64.3267 205.967 64.2221 205.681 64.1792 205.382C64.1364 205.084 64.1562 204.78 64.2375 204.49C64.3188 204.2 64.4597 203.93 64.6512 203.698C64.8426 203.465 65.0805 203.276 65.3494 203.141C65.7401 202.953 66.1678 202.856 66.601 202.856C67.0342 202.856 67.4619 202.953 67.8527 203.141C68.2085 203.316 68.5076 203.589 68.7158 203.927C68.9243 204.272 69.0313 204.669 69.0245 205.072C69.0303 205.477 68.9234 205.875 68.7158 206.222C68.5073 206.562 68.2084 206.838 67.8527 207.017C67.4656 207.211 67.0379 207.308 66.6054 207.302V207.302ZM66.6054 206.104C66.7266 206.108 66.8472 206.086 66.9591 206.039C67.071 205.992 67.1717 205.922 67.2545 205.834C67.4338 205.622 67.5249 205.349 67.5088 205.072C67.5253 204.799 67.4339 204.531 67.2545 204.325C67.0822 204.152 66.8488 204.056 66.6054 204.056C66.3621 204.056 66.1287 204.152 65.9563 204.325C65.7789 204.532 65.6883 204.799 65.7037 205.072C65.6881 205.349 65.7785 205.621 65.9563 205.834C66.0396 205.921 66.1406 205.99 66.2525 206.036C66.3643 206.082 66.4846 206.103 66.6054 206.099V206.104Z" fill="#8A3D36"/>
<path d="M71.812 207.232C72.2935 207.232 72.6839 206.84 72.6839 206.357C72.6839 205.875 72.2935 205.483 71.812 205.483C71.3305 205.483 70.9402 205.875 70.9402 206.357C70.9402 206.84 71.3305 207.232 71.812 207.232Z" fill="#434D65"/>
</g>
<g clip-path="url(#clip6_42_866)">
<path d="M513.138 417.007C512.466 416.652 511.904 416.117 511.515 415.461C511.117 414.786 510.912 414.012 510.924 413.227C510.912 412.441 511.117 411.667 511.515 410.991C511.904 410.335 512.466 409.801 513.138 409.445C513.852 409.067 514.65 408.876 515.457 408.889C516.131 408.878 516.8 409.009 517.421 409.272C517.992 409.518 518.496 409.896 518.893 410.375L517.653 411.525C517.399 411.213 517.078 410.963 516.715 410.792C516.351 410.622 515.954 410.537 515.553 410.543C515.07 410.534 514.593 410.651 514.169 410.883C513.766 411.105 513.435 411.438 513.214 411.842C512.983 412.268 512.865 412.747 512.873 413.232C512.865 413.717 512.983 414.196 513.214 414.622C513.435 415.027 513.766 415.359 514.169 415.581C514.593 415.814 515.07 415.932 515.553 415.924C515.955 415.929 516.353 415.842 516.717 415.67C517.081 415.497 517.401 415.244 517.653 414.929L518.893 416.08C518.497 416.566 517.99 416.948 517.414 417.194C516.791 417.456 516.121 417.587 515.445 417.578C514.641 417.585 513.847 417.389 513.138 417.007V417.007Z" fill="#414E68"/>
<path d="M522.742 411.118C523.157 410.951 523.601 410.869 524.048 410.878V412.604C523.842 412.587 523.702 412.58 523.63 412.58C523.402 412.567 523.174 412.6 522.958 412.677C522.743 412.754 522.546 412.873 522.377 413.028C522.216 413.211 522.092 413.425 522.014 413.657C521.936 413.889 521.906 414.134 521.924 414.378V417.422H520.063V410.974H521.84V411.825C522.069 411.509 522.382 411.264 522.742 411.118V411.118Z" fill="#414E68"/>
<path d="M531.349 414.725H526.493C526.572 415.109 526.794 415.448 527.114 415.672C527.473 415.913 527.899 416.034 528.331 416.02C528.634 416.025 528.936 415.974 529.221 415.869C529.489 415.76 529.733 415.597 529.937 415.389L530.927 416.468C530.324 417.163 529.441 417.511 528.278 417.511C527.613 417.524 526.955 417.378 526.357 417.084C525.824 416.823 525.377 416.413 525.069 415.905C524.764 415.386 524.607 414.793 524.615 414.191C524.607 413.591 524.763 413 525.064 412.482C525.357 411.98 525.782 411.57 526.293 411.295C526.83 411.008 527.431 410.862 528.04 410.871C528.633 410.863 529.219 411.003 529.746 411.279C530.246 411.545 530.66 411.95 530.939 412.446C531.236 412.987 531.386 413.597 531.373 414.215C531.381 414.244 531.373 414.414 531.349 414.725ZM526.994 412.652C526.703 412.902 526.515 413.253 526.47 413.635H529.631C529.583 413.255 529.396 412.906 529.106 412.657C528.812 412.411 528.439 412.282 528.056 412.293C527.671 412.28 527.294 412.408 526.994 412.652V412.652Z" fill="#414E68"/>
<path d="M537.334 411.59C537.868 412.07 538.135 412.789 538.133 413.747V417.427H536.379V416.624C536.031 417.223 535.377 417.523 534.423 417.523C533.983 417.537 533.546 417.455 533.141 417.283C532.804 417.136 532.515 416.895 532.311 416.588C532.119 416.288 532.019 415.938 532.024 415.581C532.014 415.308 532.07 415.036 532.187 414.79C532.305 414.543 532.481 414.33 532.7 414.167C533.148 413.822 533.843 413.652 534.78 413.652H536.26C536.27 413.477 536.243 413.302 536.179 413.139C536.115 412.977 536.016 412.83 535.89 412.71C535.572 412.468 535.178 412.351 534.78 412.381C534.438 412.381 534.099 412.435 533.774 412.542C533.469 412.636 533.183 412.785 532.931 412.98L532.263 411.674C532.647 411.411 533.073 411.216 533.523 411.099C534.014 410.962 534.521 410.894 535.031 410.895C536.03 410.884 536.798 411.116 537.334 411.59ZM535.747 416.037C535.994 415.89 536.181 415.658 536.272 415.385V414.725H534.995C534.232 414.725 533.85 414.977 533.85 415.48C533.846 415.591 533.87 415.701 533.919 415.8C533.968 415.899 534.041 415.985 534.131 416.049C534.358 416.201 534.628 416.275 534.9 416.259C535.195 416.262 535.486 416.184 535.74 416.032L535.747 416.037Z" fill="#414E68"/>
<path d="M543.948 417.11C543.746 417.256 543.517 417.359 543.275 417.415C543 417.485 542.717 417.52 542.433 417.518C541.669 417.518 541.079 417.322 540.662 416.931C540.245 416.54 540.035 415.972 540.035 415.205V412.556H539.045V411.118H540.035V409.56H541.896V411.13H543.495V412.568H541.896V415.193C541.881 415.422 541.956 415.647 542.106 415.821C542.183 415.898 542.275 415.957 542.377 415.996C542.479 416.034 542.587 416.05 542.695 416.044C542.966 416.052 543.231 415.967 543.447 415.804L543.948 417.11Z" fill="#414E68"/>
<path d="M545.094 409.776C544.99 409.682 544.907 409.568 544.852 409.44C544.796 409.311 544.769 409.172 544.771 409.033C544.769 408.893 544.796 408.754 544.852 408.626C544.907 408.497 544.99 408.383 545.094 408.29C545.323 408.086 545.622 407.978 545.929 407.99C546.233 407.976 546.532 408.079 546.764 408.278C546.867 408.366 546.95 408.476 547.005 408.601C547.061 408.725 547.089 408.86 547.086 408.997C547.09 409.141 547.063 409.284 547.008 409.418C546.952 409.551 546.869 409.67 546.764 409.768C546.537 409.978 546.237 410.088 545.929 410.075C545.622 410.087 545.323 409.98 545.094 409.776ZM544.998 410.974H546.859V417.422H544.998V410.974Z" fill="#414E68"/>
<path d="M554.96 410.974L552.252 417.422H550.343L547.647 410.974H549.568L551.345 415.36L553.183 410.974H554.96Z" fill="#414E68"/>
<path d="M561.797 414.725H556.941C557.019 415.109 557.241 415.448 557.561 415.672C557.921 415.913 558.346 416.034 558.778 416.02C559.082 416.025 559.383 415.974 559.668 415.869C559.937 415.76 560.181 415.597 560.384 415.389L561.374 416.468C560.771 417.163 559.889 417.511 558.726 417.511C558.065 417.522 557.41 417.376 556.817 417.084C556.284 416.823 555.837 416.413 555.528 415.905C555.223 415.386 555.066 414.793 555.075 414.191C555.067 413.591 555.222 413 555.523 412.482C555.817 411.98 556.242 411.57 556.752 411.295C557.29 411.008 557.89 410.862 558.499 410.871C559.093 410.863 559.679 411.003 560.205 411.279C560.706 411.545 561.12 411.95 561.398 412.446C561.696 412.987 561.845 413.597 561.832 414.215C561.832 414.244 561.821 414.414 561.797 414.725ZM557.442 412.652C557.15 412.902 556.963 413.253 556.917 413.635H560.079C560.031 413.255 559.843 412.906 559.554 412.657C559.259 412.411 558.886 412.282 558.504 412.293C558.118 412.28 557.741 412.408 557.442 412.652V412.652Z" fill="#414E68"/>
<path d="M564.035 340.685H540.534V364.292H564.035V340.685Z" fill="#983732"/>
<path d="M572.315 379.467L570.406 377.549L557.182 364.259L540.534 380.982L523.916 364.287L540.562 347.566L531.507 338.458L525.429 332.38L523.983 330.927L515.918 339.029H515.937C512.583 342.316 509.919 346.246 508.102 350.585C506.286 354.924 505.353 359.585 505.359 364.292C505.359 373.664 509.065 382.652 515.663 389.28C522.26 395.907 531.208 399.63 540.538 399.63C545.342 399.636 550.096 398.651 554.505 396.736C558.914 394.821 562.885 392.016 566.171 388.496L573.766 380.919L572.315 379.467Z" fill="#FF645A"/>
</g>
<g clip-path="url(#clip7_42_866)">
<path d="M113.062 141.036C113.409 141.384 113.595 141.905 113.595 142.583V145.259H112.24V142.791C112.263 142.494 112.177 142.198 111.996 141.961C111.907 141.867 111.799 141.795 111.679 141.748C111.559 141.701 111.43 141.68 111.301 141.688C111.151 141.681 111 141.705 110.86 141.76C110.719 141.814 110.591 141.897 110.485 142.004C110.265 142.267 110.156 142.605 110.181 142.948V145.259H108.825V138.812H110.181V141.071C110.365 140.888 110.588 140.747 110.832 140.657C111.099 140.56 111.382 140.512 111.666 140.515C111.922 140.505 112.177 140.545 112.416 140.635C112.656 140.724 112.875 140.861 113.062 141.036V141.036Z" fill="#8A3D36"/>
<path d="M118.373 141.031C118.763 141.379 118.957 141.9 118.956 142.595V145.262H117.687V144.68C117.433 145.114 116.957 145.332 116.262 145.332C115.942 145.342 115.624 145.283 115.329 145.158C115.083 145.052 114.873 144.877 114.724 144.654C114.585 144.436 114.512 144.183 114.516 143.924C114.508 143.726 114.549 143.529 114.635 143.351C114.72 143.172 114.848 143.017 115.008 142.899C115.334 142.649 115.84 142.525 116.523 142.525H117.6C117.608 142.399 117.588 142.272 117.541 142.154C117.495 142.036 117.423 141.93 117.331 141.843C117.1 141.667 116.812 141.583 116.523 141.604C116.274 141.604 116.026 141.644 115.79 141.721C115.568 141.789 115.36 141.897 115.176 142.039L114.69 141.092C114.969 140.9 115.279 140.759 115.607 140.675C115.965 140.576 116.334 140.526 116.705 140.527C117.431 140.519 117.987 140.687 118.373 141.031ZM117.218 144.254C117.398 144.148 117.534 143.98 117.6 143.782V143.304H116.671C116.115 143.304 115.837 143.486 115.837 143.851C115.834 143.931 115.851 144.011 115.887 144.083C115.923 144.155 115.976 144.217 116.042 144.263C116.206 144.374 116.403 144.427 116.601 144.416C116.818 144.42 117.031 144.364 117.218 144.254V144.254Z" fill="#8A3D36"/>
<path d="M122.132 140.689C122.434 140.567 122.757 140.508 123.082 140.515V141.766C122.931 141.754 122.83 141.749 122.778 141.749C122.612 141.739 122.446 141.763 122.289 141.819C122.133 141.875 121.989 141.961 121.866 142.074C121.646 142.291 121.536 142.617 121.536 143.052V145.259H120.181V140.584H121.475V141.201C121.641 140.971 121.869 140.794 122.132 140.689V140.689Z" fill="#8A3D36"/>
<path d="M123.89 138.812H125.246V145.259H123.89V138.812Z" fill="#8A3D36"/>
<path d="M126.575 139.716C126.499 139.648 126.439 139.565 126.399 139.472C126.358 139.379 126.338 139.278 126.34 139.177C126.338 139.075 126.358 138.975 126.399 138.882C126.439 138.789 126.499 138.706 126.575 138.638C126.741 138.489 126.96 138.411 127.183 138.421C127.405 138.412 127.622 138.486 127.791 138.63C127.866 138.694 127.926 138.774 127.967 138.864C128.008 138.954 128.028 139.052 128.026 139.151C128.029 139.255 128.009 139.359 127.969 139.456C127.929 139.552 127.868 139.639 127.791 139.71C127.626 139.862 127.407 139.942 127.183 139.933C126.96 139.941 126.742 139.863 126.575 139.716V139.716ZM126.505 140.584H127.861V145.259H126.505V140.584Z" fill="#8A3D36"/>
<path d="M133.673 143.304H130.137C130.194 143.582 130.356 143.828 130.589 143.99C130.851 144.165 131.161 144.253 131.475 144.242C131.696 144.246 131.916 144.209 132.123 144.133C132.319 144.054 132.496 143.935 132.644 143.785L133.366 144.567C132.927 145.071 132.284 145.323 131.437 145.323C130.956 145.331 130.479 145.225 130.047 145.014C129.659 144.824 129.333 144.527 129.108 144.159C128.885 143.783 128.771 143.353 128.778 142.916C128.772 142.481 128.885 142.053 129.105 141.677C129.317 141.311 129.627 141.01 130 140.809C130.391 140.6 130.829 140.495 131.272 140.501C131.704 140.495 132.131 140.596 132.514 140.796C132.878 140.99 133.18 141.284 133.383 141.643C133.6 142.035 133.709 142.477 133.699 142.925C133.699 142.952 133.691 143.078 133.673 143.304ZM130.502 141.801C130.289 141.982 130.153 142.236 130.12 142.513H132.422C132.386 142.238 132.25 141.985 132.04 141.804C131.825 141.626 131.554 141.533 131.275 141.54C130.995 141.531 130.72 141.624 130.502 141.801V141.801Z" fill="#8A3D36"/>
<path d="M134.516 145.085C134.436 145.005 134.374 144.91 134.332 144.806C134.29 144.701 134.27 144.589 134.273 144.477C134.268 144.364 134.288 144.253 134.33 144.148C134.372 144.044 134.435 143.95 134.516 143.872C134.677 143.719 134.893 143.637 135.115 143.643C135.338 143.637 135.553 143.719 135.715 143.872C135.796 143.95 135.859 144.044 135.901 144.148C135.943 144.253 135.962 144.364 135.958 144.477C135.961 144.589 135.941 144.701 135.899 144.806C135.857 144.91 135.795 145.005 135.715 145.085C135.637 145.164 135.543 145.227 135.44 145.269C135.337 145.31 135.227 145.331 135.115 145.328C135.004 145.331 134.894 145.31 134.791 145.269C134.687 145.227 134.594 145.164 134.516 145.085V145.085Z" fill="#434D65"/>
<path d="M98.462 146.058C96.99 146.082 95.5343 145.747 94.2205 145.083C93.0083 144.473 91.9906 143.537 91.2822 142.379C90.5694 141.196 90.2033 139.836 90.2257 138.454C90.2036 137.072 90.5696 135.711 91.2822 134.527C91.9916 133.37 93.009 132.434 94.2205 131.823C95.5343 131.159 96.99 130.825 98.462 130.848C100.018 130.848 101.377 131.173 102.538 131.823C103.672 132.44 104.566 133.419 105.079 134.603L101.757 136.388C100.987 135.033 99.8799 134.356 98.4342 134.357C97.9203 134.34 97.4083 134.428 96.9301 134.617C96.4518 134.806 96.0175 135.091 95.654 135.455C94.9219 136.187 94.5558 137.184 94.5558 138.447C94.5558 139.71 94.9219 140.707 95.654 141.439C96.0177 141.803 96.4521 142.088 96.9303 142.276C97.4085 142.465 97.9203 142.554 98.4342 142.537C99.8984 142.537 101.006 141.86 101.757 140.506L104.17 141.823L114.12 131.874L95.1101 112.864L76.1023 131.874L95.1101 150.888L100.073 145.927C99.5405 146.016 99.0017 146.06 98.462 146.058V146.058Z" fill="#8A3D36"/>
</g>
<g clip-path="url(#clip8_42_866)">
<path d="M714.374 245.248L698.234 229.107L682.093 245.248L698.233 261.389L714.374 245.248Z" fill="#983732"/>
<path d="M781.81 245.25L765.669 229.109L749.528 245.25L765.669 261.391L781.81 245.25Z" fill="#983732"/>
<path d="M748.091 245.248L731.951 229.108L715.81 245.248L731.951 261.389L748.091 245.248Z" fill="#414E68"/>
<path d="M731.233 228.203L715.092 212.062L698.951 228.203L715.092 244.343L731.233 228.203Z" fill="#414E68"/>
<path d="M764.951 228.199L748.811 212.059L732.67 228.199L748.811 244.34L764.951 228.199Z" fill="#414E68"/>
<path d="M692.359 300.238V288.939C692.359 286.266 692.359 284.165 691.625 282.004C690.891 279.843 688.98 276.366 683.891 276.366C678.801 276.366 675.794 280.28 675.794 280.28C674.585 277.956 672.54 276.371 669.445 276.371C666.598 276.372 663.852 277.425 661.734 279.327V276.901H654.994V304.742H661.966C661.915 304.171 661.752 298.426 661.752 296.041V286.006C663.216 284.026 665.006 282.645 667.474 282.645C670.174 282.645 670.672 285.29 670.672 290.831V304.742H677.546C677.495 304.171 677.198 298.426 677.198 296.041V286.317C678.081 285.067 679.103 282.641 682.217 282.641C685.081 282.641 685.615 286.229 685.615 289.329V304.928H693.205L693.257 304.821C693.082 304.625 692.927 304.414 692.792 304.189C692.685 304.017 692.359 303.641 692.359 300.238Z" fill="#414E68"/>
<path d="M710.059 276.389C699.425 276.389 695.878 284.124 695.878 290.547V291.179C695.948 297.561 699.527 305.124 710.055 305.124C720.582 305.124 724.161 297.547 724.236 291.179V290.547C724.24 284.124 720.699 276.389 710.059 276.389ZM717.422 290.98C717.422 295.953 714.252 299.151 710.059 299.151C705.867 299.151 702.697 295.953 702.697 290.98V290.547C702.697 285.574 705.867 282.376 710.059 282.376C714.252 282.376 717.422 285.574 717.422 290.547V290.98Z" fill="#414E68"/>
<path d="M794.732 276.389C784.093 276.389 780.547 284.124 780.547 290.547V291.179C780.621 297.561 784.2 305.124 794.728 305.124C805.256 305.124 808.83 297.547 808.904 291.179V290.547C808.914 284.124 805.367 276.389 794.732 276.389ZM802.095 290.98C802.095 295.953 798.92 299.151 794.732 299.151C790.545 299.151 787.365 295.953 787.365 290.98V290.547C787.365 285.574 790.54 282.376 794.732 282.376C798.925 282.376 802.095 285.574 802.095 290.547V290.98Z" fill="#414E68"/>
<path d="M737.613 295.237L731.115 276.919H723.576L734.787 304.742H740.276L751.273 276.919H743.897L737.613 295.237Z" fill="#983732"/>
<path d="M766.505 276.389C758.52 276.389 751.562 281.767 751.562 291.059C751.562 300.35 759.463 305.142 767.198 305.142C773.533 305.142 776.303 303.069 776.303 303.069L776.731 296.622C776.731 296.622 774.081 298.886 768.262 298.886C762.187 298.886 759.431 296.264 758.459 292.871C758.459 292.871 775.29 293.28 778.674 292.123C778.674 292.123 778.99 291.863 778.99 289.004C778.971 284.291 775.987 276.389 766.505 276.389ZM765.492 287.893C762.656 287.893 758.52 287.81 758.52 287.81C758.52 287.81 759.724 281.818 766.008 281.986C771.12 281.986 771.892 287.707 771.892 287.707C771.892 287.707 768.308 287.889 765.473 287.889L765.492 287.893Z" fill="#414E68"/>
<path d="M707.01 326.83H710.45V333.43C709.524 334.116 708.486 334.635 707.382 334.964C706.245 335.315 705.062 335.495 703.873 335.498C702.288 335.522 700.722 335.15 699.317 334.415C698.003 333.728 696.905 332.69 696.143 331.417C695.368 330.107 694.971 328.608 694.995 327.085C694.97 325.562 695.368 324.061 696.143 322.749C696.91 321.472 698.017 320.434 699.341 319.751C700.762 319.017 702.343 318.646 703.942 318.672C705.271 318.653 706.59 318.897 707.823 319.393C708.952 319.848 709.956 320.565 710.752 321.485L708.335 323.716C707.809 323.127 707.164 322.657 706.443 322.337C705.721 322.017 704.941 321.853 704.151 321.856C703.182 321.833 702.222 322.057 701.363 322.507C700.578 322.936 699.933 323.581 699.503 324.366C699.043 325.197 698.81 326.135 698.829 327.085C698.813 328.028 699.045 328.958 699.503 329.781C699.937 330.562 700.582 331.206 701.363 331.64C702.202 332.092 703.143 332.321 704.096 332.305C705.115 332.32 706.121 332.081 707.024 331.608L707.01 326.83Z" fill="#414E68"/>
<path d="M718.895 322.995C719.704 322.671 720.571 322.513 721.442 322.53V325.877C721.038 325.844 720.768 325.83 720.629 325.83C720.185 325.805 719.74 325.869 719.321 326.018C718.901 326.167 718.517 326.399 718.189 326.7C717.6 327.282 717.305 328.154 717.305 329.316V335.219H713.68V322.716H717.143V324.366C717.586 323.753 718.193 323.277 718.895 322.995V322.995Z" fill="#414E68"/>
<path d="M725.89 334.578C724.877 334.059 724.029 333.267 723.441 332.291C722.844 331.287 722.538 330.136 722.558 328.968C722.538 327.8 722.844 326.649 723.441 325.645C724.029 324.668 724.877 323.874 725.89 323.353C726.988 322.793 728.205 322.51 729.437 322.53C730.664 322.509 731.878 322.792 732.969 323.353C733.979 323.877 734.823 324.67 735.41 325.645C736.007 326.649 736.313 327.8 736.293 328.968C736.312 330.136 736.006 331.287 735.41 332.291C734.823 333.264 733.978 334.056 732.969 334.578C731.879 335.143 730.665 335.427 729.437 335.405C728.205 335.426 726.986 335.142 725.89 334.578V334.578ZM731.724 331.487C732.345 330.8 732.668 329.893 732.621 328.968C732.668 328.041 732.346 327.133 731.724 326.444C731.43 326.136 731.074 325.894 730.68 325.734C730.286 325.574 729.862 325.499 729.437 325.514C729.006 325.496 728.576 325.57 728.175 325.73C727.775 325.89 727.413 326.134 727.113 326.444C726.799 326.782 726.554 327.179 726.395 327.613C726.235 328.046 726.163 328.507 726.183 328.968C726.164 329.429 726.236 329.888 726.395 330.321C726.555 330.753 726.799 331.15 727.113 331.487C727.413 331.797 727.775 332.04 728.175 332.201C728.576 332.361 729.006 332.435 729.437 332.417C729.862 332.432 730.286 332.357 730.68 332.197C731.074 332.037 731.43 331.795 731.724 331.487V331.487Z" fill="#414E68"/>
<path d="M751.306 322.716V335.219H747.866V333.732C747.392 334.267 746.804 334.691 746.147 334.973C745.464 335.265 744.728 335.412 743.985 335.405C743.274 335.445 742.563 335.342 741.892 335.103C741.222 334.863 740.606 334.492 740.081 334.011C739.117 333.063 738.637 331.661 738.64 329.805V322.74H742.265V329.247C742.265 331.258 743.11 332.265 744.799 332.268C745.188 332.285 745.576 332.217 745.937 332.07C746.298 331.924 746.623 331.701 746.89 331.417C747.465 330.709 747.747 329.808 747.68 328.898V322.716H751.306Z" fill="#414E68"/>
<path d="M765.236 323.334C766.18 323.861 766.958 324.642 767.481 325.589C768.041 326.627 768.322 327.793 768.294 328.972C768.321 330.15 768.041 331.315 767.481 332.352C766.958 333.298 766.18 334.079 765.236 334.606C764.267 335.146 763.175 335.423 762.066 335.41C761.367 335.445 760.668 335.329 760.018 335.068C759.368 334.807 758.782 334.408 758.301 333.899V339.733H754.676V322.721H758.138V324.162C759.035 323.074 760.346 322.535 762.066 322.535C763.174 322.521 764.267 322.796 765.236 323.334V323.334ZM763.725 331.492C764.347 330.804 764.669 329.898 764.622 328.972C764.67 328.045 764.347 327.138 763.725 326.449C763.431 326.141 763.076 325.899 762.682 325.739C762.287 325.579 761.864 325.504 761.439 325.519C761.013 325.504 760.588 325.579 760.193 325.739C759.799 325.899 759.442 326.141 759.147 326.449C758.529 327.139 758.208 328.046 758.255 328.972C758.209 329.897 758.529 330.802 759.147 331.492C759.442 331.799 759.799 332.041 760.194 332.201C760.589 332.361 761.013 332.436 761.439 332.421C761.863 332.435 762.285 332.358 762.677 332.197C763.07 332.036 763.424 331.794 763.716 331.487L763.725 331.492Z" fill="#414E68"/>
</g>
<g clip-path="url(#clip9_42_866)">
<path d="M314.498 246.627L300.599 232.728L286.7 246.627L300.599 260.526L314.498 246.627Z" fill="#983732"/>
<path d="M372.571 246.625L358.672 232.726L344.773 246.625L358.672 260.524L372.571 246.625Z" fill="#983732"/>
<path d="M343.533 246.625L329.634 232.726L315.735 246.625L329.634 260.524L343.533 246.625Z" fill="#414E68"/>
<path d="M329.016 231.946L315.117 218.047L301.218 231.946L315.117 245.845L329.016 231.946Z" fill="#414E68"/>
<path d="M358.054 231.947L344.155 218.048L330.256 231.947L344.155 245.846L358.054 231.947Z" fill="#414E68"/>
<path d="M295.542 293.977V284.247C295.542 281.946 295.542 280.137 294.905 278.276C294.269 276.414 292.628 273.441 288.245 273.441C283.862 273.441 281.277 276.811 281.277 276.811C280.232 274.81 278.475 273.445 275.809 273.445C273.358 273.446 270.993 274.352 269.169 275.99V273.901H263.366V297.856H269.369C269.325 297.363 269.189 292.416 269.189 290.363V281.722C270.45 280.017 271.967 278.828 274.112 278.828C276.438 278.828 276.87 281.105 276.87 285.876V297.856H282.762C282.718 297.363 282.466 292.416 282.466 290.363V281.99C283.226 280.913 284.103 278.824 286.788 278.824C289.25 278.824 289.71 281.914 289.71 284.584V298.016H296.246L296.294 297.924C296.145 297.754 296.011 297.572 295.894 297.379C295.818 297.231 295.542 296.907 295.542 293.977Z" fill="#414E68"/>
<path d="M310.779 273.441C301.617 273.441 298.568 280.101 298.568 285.632V286.177C298.632 291.672 301.713 298.184 310.779 298.184C319.845 298.184 322.923 291.66 322.987 286.177V285.632C322.995 280.101 319.941 273.441 310.779 273.441ZM317.119 286.004C317.119 290.287 314.385 293.041 310.779 293.041C307.173 293.041 304.435 290.287 304.435 286.004V285.632C304.435 281.35 307.169 278.596 310.779 278.596C314.389 278.596 317.119 281.35 317.119 285.632V286.004Z" fill="#414E68"/>
<path d="M383.692 273.441C374.534 273.441 371.481 280.101 371.481 285.632V286.177C371.541 291.672 374.623 298.184 383.688 298.184C392.754 298.184 395.836 291.66 395.896 286.177V285.632C395.904 280.101 392.854 273.441 383.692 273.441ZM390.032 286.004C390.032 290.287 387.302 293.041 383.692 293.041C380.082 293.041 377.352 290.287 377.352 286.004V285.632C377.352 281.35 380.082 278.596 383.692 278.596C387.302 278.596 390.032 281.35 390.032 285.632V286.004Z" fill="#414E68"/>
<path d="M334.51 289.671L328.914 273.897H322.422L332.076 297.856H336.803L346.273 273.897H339.921L334.51 289.671Z" fill="#983732"/>
<path d="M359.369 273.441C352.493 273.441 346.505 278.072 346.505 286.073C346.505 294.073 353.309 298.2 359.965 298.2C365.421 298.2 367.81 296.415 367.81 296.415L368.175 290.863C368.175 290.863 365.893 292.813 360.882 292.813C355.651 292.813 353.277 290.555 352.445 287.633C352.445 287.633 366.934 287.986 369.852 286.989C369.852 286.989 370.124 286.765 370.124 284.303C370.124 280.245 367.55 273.441 359.369 273.441ZM358.497 283.347C356.055 283.347 352.493 283.275 352.493 283.275C352.493 283.275 353.529 278.116 358.937 278.26C363.34 278.26 364.004 283.187 364.004 283.187C364.004 283.187 360.942 283.343 358.497 283.343V283.347Z" fill="#414E68"/>
<path d="M284.363 323.872C283.468 323.639 282.624 323.243 281.873 322.703L282.974 320.261C283.626 320.727 284.349 321.086 285.115 321.322C285.916 321.584 286.754 321.719 287.597 321.722C288.301 321.773 289.005 321.634 289.638 321.322C289.836 321.218 290.003 321.061 290.119 320.869C290.235 320.678 290.297 320.458 290.298 320.233C290.3 320.073 290.265 319.915 290.195 319.771C290.126 319.626 290.024 319.5 289.898 319.401C289.602 319.161 289.262 318.982 288.898 318.873C288.497 318.737 287.941 318.592 287.248 318.432C286.361 318.23 285.485 317.976 284.627 317.672C283.951 317.425 283.348 317.012 282.874 316.471C282.363 315.84 282.103 315.041 282.145 314.23C282.137 313.442 282.367 312.671 282.806 312.016C283.304 311.308 284 310.762 284.807 310.447C285.84 310.033 286.948 309.835 288.061 309.867C288.945 309.865 289.825 309.972 290.683 310.187C291.473 310.374 292.23 310.685 292.924 311.108L291.923 313.569C290.748 312.868 289.409 312.489 288.041 312.469C287.345 312.419 286.65 312.572 286.04 312.909C285.84 313.03 285.676 313.2 285.562 313.404C285.448 313.607 285.39 313.837 285.391 314.07C285.39 314.303 285.461 314.532 285.596 314.723C285.73 314.915 285.92 315.06 286.14 315.138C286.879 315.445 287.647 315.677 288.433 315.831C289.322 316.03 290.197 316.284 291.055 316.591C291.729 316.84 292.33 317.253 292.804 317.792C293.319 318.414 293.581 319.207 293.536 320.013C293.542 320.795 293.307 321.559 292.864 322.203C292.361 322.908 291.667 323.454 290.863 323.776C289.826 324.188 288.716 324.385 287.601 324.356C286.504 324.35 285.413 324.187 284.363 323.872V323.872Z" fill="#414E68"/>
<path d="M297.571 323.548C296.697 323.1 295.965 322.418 295.458 321.578C294.945 320.713 294.682 319.722 294.697 318.717C294.682 317.711 294.945 316.72 295.458 315.855C295.963 315.008 296.695 314.319 297.571 313.866C298.514 313.383 299.561 313.14 300.621 313.157C301.678 313.139 302.723 313.382 303.663 313.866C304.533 314.315 305.261 314.998 305.764 315.839C306.278 316.704 306.542 317.695 306.524 318.701C306.541 319.707 306.278 320.697 305.764 321.562C305.261 322.402 304.533 323.084 303.663 323.532C302.724 324.019 301.678 324.263 300.621 324.244C299.562 324.268 298.514 324.028 297.571 323.548V323.548ZM302.594 320.886C303.126 320.292 303.402 319.513 303.362 318.717C303.403 317.919 303.126 317.138 302.594 316.543C302.34 316.278 302.033 316.07 301.693 315.932C301.353 315.794 300.987 315.73 300.621 315.743C300.25 315.727 299.879 315.791 299.534 315.929C299.189 316.067 298.878 316.276 298.619 316.543C298.352 316.836 298.146 317.179 298.012 317.552C297.878 317.925 297.819 318.321 297.839 318.717C297.819 319.112 297.878 319.507 298.012 319.879C298.146 320.252 298.353 320.594 298.619 320.886C298.878 321.153 299.19 321.362 299.534 321.5C299.879 321.638 300.25 321.702 300.621 321.687C300.987 321.7 301.353 321.635 301.693 321.497C302.033 321.359 302.34 321.151 302.594 320.886V320.886Z" fill="#414E68"/>
<path d="M312.028 313.573H314.79V315.975H312.108V324.1H308.986V315.975H307.325V313.573H308.986V313.093C308.959 312.557 309.041 312.022 309.229 311.519C309.417 311.016 309.706 310.558 310.079 310.171C310.807 309.451 311.828 309.091 313.149 309.091C313.597 309.088 314.044 309.138 314.481 309.239C314.854 309.319 315.209 309.466 315.53 309.671L314.73 311.932C314.363 311.668 313.921 311.528 313.469 311.532C312.524 311.532 312.048 312.053 312.048 313.093L312.028 313.573Z" fill="#414E68"/>
<path d="M323.295 323.58C322.955 323.821 322.572 323.994 322.166 324.088C321.704 324.203 321.229 324.261 320.753 324.26C319.472 324.26 318.482 323.933 317.783 323.28C317.084 322.626 316.733 321.665 316.731 320.398V315.995H315.07V313.594H316.731V310.972H319.853V313.594H322.534V315.995H319.853V320.398C319.83 320.78 319.956 321.156 320.205 321.446C320.334 321.575 320.489 321.674 320.659 321.738C320.83 321.802 321.012 321.83 321.194 321.819C321.647 321.832 322.092 321.691 322.454 321.418L323.295 323.58Z" fill="#414E68"/>
<path d="M342.146 313.333L338.244 324.1H335.242L332.841 317.416L330.339 324.1H327.337L323.455 313.333H326.389L328.93 320.618L331.572 313.333H334.213L336.775 320.618L339.397 313.333H342.146Z" fill="#414E68"/>
<path d="M351.432 314.362C352.329 315.162 352.776 316.363 352.773 317.964V324.108H349.851V322.767C349.267 323.768 348.17 324.268 346.569 324.268C345.832 324.292 345.099 324.155 344.42 323.868C343.853 323.623 343.37 323.22 343.027 322.707C342.705 322.206 342.538 321.621 342.547 321.026C342.529 320.57 342.623 320.116 342.82 319.705C343.018 319.293 343.313 318.936 343.679 318.664C344.432 318.088 345.597 317.804 347.17 317.804H349.651C349.669 317.512 349.622 317.22 349.515 316.949C349.408 316.677 349.243 316.432 349.031 316.231C348.499 315.826 347.836 315.631 347.17 315.683C346.596 315.682 346.026 315.773 345.481 315.951C344.97 316.109 344.491 316.357 344.068 316.683L342.947 314.502C343.59 314.061 344.305 313.735 345.06 313.541C345.884 313.313 346.735 313.199 347.59 313.201C349.258 313.182 350.538 313.569 351.432 314.362ZM348.771 321.786C349.186 321.541 349.498 321.155 349.651 320.698V319.597H347.51C346.229 319.597 345.589 320.017 345.589 320.858C345.583 321.043 345.623 321.226 345.706 321.391C345.788 321.557 345.91 321.7 346.061 321.806C346.441 322.059 346.893 322.183 347.35 322.159C347.849 322.168 348.34 322.04 348.771 321.786V321.786Z" fill="#414E68"/>
<path d="M360.09 313.573C360.785 313.294 361.53 313.158 362.279 313.173V316.055C361.935 316.027 361.699 316.015 361.578 316.015C361.196 315.993 360.813 316.048 360.452 316.176C360.091 316.305 359.76 316.505 359.477 316.763C359.206 317.069 358.999 317.426 358.868 317.813C358.738 318.2 358.686 318.609 358.717 319.017V324.1H355.607V313.333H358.589V314.754C358.969 314.228 359.489 313.819 360.09 313.573Z" fill="#414E68"/>
<path d="M374.526 319.597H366.381C366.509 320.245 366.882 320.818 367.422 321.198C368.025 321.6 368.739 321.803 369.463 321.779C369.972 321.788 370.478 321.702 370.956 321.526C371.406 321.343 371.815 321.071 372.157 320.726L373.818 322.527C372.807 323.688 371.326 324.268 369.375 324.268C368.267 324.287 367.169 324.043 366.173 323.556C365.279 323.119 364.529 322.436 364.012 321.586C363.5 320.721 363.237 319.73 363.251 318.725C363.24 317.721 363.503 316.732 364.012 315.867C364.501 315.022 365.214 314.329 366.073 313.866C366.974 313.386 367.982 313.143 369.003 313.157C369.999 313.141 370.983 313.375 371.865 313.838C372.705 314.281 373.4 314.958 373.866 315.787C374.367 316.689 374.618 317.709 374.594 318.741C374.589 318.791 374.566 319.077 374.526 319.597ZM367.222 316.135C366.732 316.552 366.418 317.138 366.341 317.776H371.645C371.564 317.141 371.25 316.559 370.764 316.143C370.272 315.731 369.645 315.515 369.003 315.535C368.354 315.513 367.718 315.726 367.214 316.135H367.222Z" fill="#414E68"/>
</g>
<g clip-path="url(#clip10_42_866)">
<path d="M881.705 183.755L875.235 177.286L868.766 183.755L875.235 190.225L881.705 183.755Z" fill="#983732"/>
<path d="M908.736 183.754L902.266 177.285L895.797 183.754L902.266 190.224L908.736 183.754Z" fill="#983732"/>
<path d="M895.219 183.754L888.75 177.285L882.281 183.754L888.75 190.224L895.219 183.754Z" fill="#414E68"/>
<path d="M888.462 176.922L881.993 170.452L875.523 176.922L881.993 183.391L888.462 176.922Z" fill="#414E68"/>
<path d="M901.977 176.921L895.508 170.451L889.038 176.921L895.508 183.39L901.977 176.921Z" fill="#414E68"/>
<path d="M930.646 186.483V181.961C930.646 180.89 930.646 180.046 930.35 179.18C930.053 178.313 929.29 176.922 927.25 176.922C925.21 176.922 924.006 178.49 924.006 178.49C923.52 177.559 922.702 176.922 921.461 176.922C920.319 176.922 919.218 177.345 918.369 178.108V177.134H915.667V188.286H918.462C918.441 188.059 918.376 185.756 918.376 184.798V180.776C918.963 179.984 919.68 179.429 920.67 179.429C921.752 179.429 921.953 180.491 921.953 182.71V188.286H924.707C924.686 188.059 924.569 185.756 924.569 184.798V180.901C924.923 180.4 925.331 179.429 926.581 179.429C927.727 179.429 927.941 180.867 927.941 182.11V188.36H930.983L931.005 188.318C930.936 188.239 930.874 188.155 930.819 188.066C930.774 188.001 930.646 187.846 930.646 186.483Z" fill="#414E68"/>
<path d="M937.74 176.922C933.476 176.922 932.054 180.024 932.054 182.598V182.85C932.084 185.409 933.519 188.439 937.738 188.439C941.958 188.439 943.391 185.402 943.421 182.85V182.598C943.426 180.024 942.003 176.922 937.74 176.922ZM940.691 182.77C940.691 184.763 939.419 186.047 937.74 186.047C936.062 186.047 934.787 184.763 934.787 182.77V182.598C934.787 180.605 936.06 179.323 937.74 179.323C939.421 179.323 940.691 180.605 940.691 182.598V182.77Z" fill="#414E68"/>
<path d="M971.676 176.922C967.414 176.922 965.992 180.024 965.992 182.598V182.85C966.02 185.409 967.455 188.439 971.675 188.439C975.894 188.439 977.329 185.402 977.357 182.85V182.598C977.36 180.024 975.939 176.922 971.676 176.922ZM974.627 182.77C974.627 184.763 973.357 186.047 971.676 186.047C969.996 186.047 968.725 184.763 968.725 182.77V182.598C968.725 180.605 969.996 179.323 971.676 179.323C973.357 179.323 974.627 180.605 974.627 182.598V182.77Z" fill="#414E68"/>
<path d="M948.782 184.476L946.178 177.134H943.156L947.651 188.286H949.85L954.258 177.134H951.301L948.782 184.476Z" fill="#983732"/>
<path d="M960.355 176.922C957.154 176.922 954.367 179.077 954.367 182.801C954.367 186.525 957.535 188.446 960.633 188.446C963.172 188.446 964.284 187.613 964.284 187.613L964.454 185.031C964.454 185.031 963.392 185.938 961.059 185.938C958.624 185.938 957.52 184.888 957.132 183.528C957.132 183.528 963.876 183.692 965.234 183.228C965.234 183.228 965.361 183.124 965.361 181.978C965.361 180.081 964.163 176.922 960.355 176.922ZM959.949 181.531C958.813 181.531 957.164 181.499 957.164 181.499C957.164 181.499 957.646 179.098 960.163 179.165C962.212 179.165 962.522 181.456 962.522 181.456C962.522 181.456 961.087 181.531 959.949 181.531Z" fill="#414E68"/>
<path d="M916.549 199.449C916.132 199.34 915.739 199.155 915.388 198.905L915.901 197.769C916.204 197.986 916.54 198.152 916.897 198.26C917.27 198.383 917.66 198.446 918.052 198.447C918.38 198.469 918.708 198.405 919.002 198.26C919.095 198.212 919.173 198.138 919.227 198.049C919.281 197.959 919.31 197.857 919.31 197.752C919.311 197.678 919.294 197.604 919.262 197.537C919.229 197.47 919.182 197.412 919.123 197.366C918.986 197.255 918.827 197.171 918.658 197.12C918.471 197.057 918.211 196.988 917.888 196.913C917.475 196.821 917.067 196.703 916.668 196.561C916.354 196.447 916.074 196.254 915.854 196.002C915.616 195.709 915.494 195.337 915.513 194.959C915.509 194.593 915.616 194.233 915.82 193.929C916.053 193.6 916.377 193.345 916.752 193.197C917.233 193.005 917.747 192.914 918.265 192.929C918.676 192.927 919.086 192.977 919.485 193.078C919.853 193.164 920.205 193.308 920.528 193.504L920.062 194.65C919.515 194.325 918.892 194.149 918.255 194.139C917.932 194.117 917.609 194.187 917.324 194.343C917.231 194.399 917.153 194.478 917.1 194.573C917.047 194.668 917.019 194.776 917.02 194.885C917.02 194.994 917.054 195.1 917.117 195.189C917.179 195.278 917.268 195.345 917.37 195.382C917.714 195.525 918.071 195.633 918.436 195.704C918.85 195.797 919.257 195.915 919.656 196.058C919.97 196.174 920.251 196.366 920.472 196.617C920.711 196.906 920.832 197.275 920.811 197.649C920.814 198.013 920.705 198.369 920.5 198.67C920.266 198.998 919.943 199.252 919.569 199.401C919.086 199.593 918.57 199.685 918.05 199.671C917.542 199.669 917.036 199.594 916.549 199.449V199.449Z" fill="#414E68"/>
<path d="M922.706 199.291C922.299 199.082 921.959 198.765 921.722 198.374C921.483 197.971 921.361 197.51 921.368 197.042C921.36 196.574 921.483 196.112 921.722 195.71C921.959 195.318 922.299 195 922.706 194.791C923.145 194.567 923.632 194.454 924.126 194.462C924.617 194.453 925.104 194.566 925.541 194.791C925.946 195.002 926.284 195.319 926.519 195.71C926.759 196.112 926.882 196.574 926.873 197.042C926.881 197.51 926.758 197.971 926.519 198.374C926.284 198.764 925.946 199.081 925.541 199.291C925.104 199.516 924.618 199.63 924.126 199.622C923.632 199.63 923.145 199.516 922.706 199.291V199.291ZM925.044 198.052C925.292 197.775 925.42 197.412 925.402 197.042C925.42 196.671 925.292 196.307 925.044 196.03C924.926 195.907 924.783 195.81 924.624 195.746C924.466 195.682 924.296 195.652 924.126 195.658C923.954 195.652 923.784 195.682 923.625 195.746C923.466 195.81 923.323 195.907 923.203 196.03C923.077 196.166 922.98 196.325 922.916 196.499C922.852 196.672 922.823 196.857 922.831 197.042C922.823 197.226 922.852 197.411 922.916 197.584C922.98 197.757 923.078 197.916 923.203 198.052C923.322 198.175 923.466 198.272 923.625 198.336C923.784 198.4 923.954 198.43 924.126 198.424C924.296 198.431 924.465 198.403 924.623 198.34C924.782 198.278 924.925 198.183 925.044 198.061V198.052Z" fill="#414E68"/>
<path d="M932.891 194.534V199.551H931.512V198.957C931.322 199.172 931.087 199.342 930.823 199.455C930.549 199.572 930.254 199.631 929.957 199.628C929.671 199.643 929.385 199.6 929.116 199.502C928.847 199.404 928.601 199.253 928.392 199.058C928.007 198.685 927.814 198.126 927.814 197.381V194.547H929.267V197.156C929.267 197.964 929.606 198.367 930.283 198.367C930.439 198.374 930.594 198.347 930.739 198.288C930.883 198.23 931.014 198.141 931.121 198.028C931.351 197.744 931.465 197.382 931.438 197.018V194.538L932.891 194.534Z" fill="#414E68"/>
<path d="M936.334 194.648C936.658 194.518 937.004 194.455 937.353 194.462V195.803C937.191 195.79 937.083 195.784 937.027 195.784C936.849 195.774 936.671 195.8 936.503 195.86C936.335 195.919 936.18 196.012 936.049 196.133C935.813 196.366 935.695 196.716 935.695 197.182V199.551H934.242V194.54H935.63V195.201C935.807 194.953 936.051 194.761 936.334 194.648V194.648Z" fill="#414E68"/>
<path d="M939.156 199.291C938.745 199.084 938.399 198.767 938.159 198.374C937.917 197.972 937.792 197.511 937.8 197.042C937.792 196.573 937.916 196.111 938.159 195.71C938.399 195.317 938.745 194.998 939.156 194.791C939.602 194.567 940.095 194.454 940.594 194.462C941.077 194.45 941.553 194.564 941.979 194.791C942.363 195.002 942.666 195.335 942.839 195.738L941.712 196.343C941.61 196.134 941.451 195.959 941.253 195.836C941.055 195.714 940.827 195.65 940.594 195.652C940.422 195.648 940.251 195.679 940.091 195.743C939.931 195.807 939.785 195.903 939.663 196.025C939.535 196.16 939.437 196.32 939.373 196.495C939.308 196.67 939.281 196.856 939.29 197.042C939.281 197.227 939.309 197.413 939.373 197.587C939.437 197.761 939.535 197.921 939.663 198.055C939.785 198.178 939.93 198.274 940.09 198.338C940.25 198.402 940.422 198.432 940.594 198.428C940.827 198.432 941.056 198.369 941.254 198.247C941.452 198.126 941.611 197.95 941.712 197.741L942.839 198.354C942.661 198.749 942.359 199.077 941.979 199.285C941.555 199.517 941.077 199.634 940.594 199.622C940.095 199.63 939.602 199.516 939.156 199.291V199.291Z" fill="#414E68"/>
<path d="M948.494 197.45H944.702C944.761 197.752 944.935 198.019 945.187 198.195C945.468 198.381 945.8 198.475 946.137 198.463C946.374 198.468 946.609 198.429 946.832 198.348C947.041 198.263 947.231 198.136 947.391 197.975L948.164 198.814C947.692 199.354 947.003 199.624 946.096 199.624C945.577 199.634 945.063 199.52 944.596 199.292C944.18 199.089 943.831 198.771 943.59 198.376C943.351 197.973 943.229 197.512 943.236 197.044C943.23 196.577 943.351 196.118 943.586 195.715C943.812 195.321 944.145 194.998 944.546 194.784C944.965 194.561 945.434 194.447 945.91 194.454C946.373 194.447 946.831 194.556 947.242 194.771C947.633 194.978 947.956 195.293 948.173 195.678C948.405 196.098 948.522 196.572 948.512 197.051C948.521 197.077 948.512 197.21 948.494 197.45ZM945.094 195.838C944.866 196.033 944.719 196.306 944.684 196.604H947.152C947.114 196.309 946.968 196.038 946.742 195.844C946.513 195.652 946.221 195.551 945.923 195.559C945.625 195.551 945.334 195.651 945.103 195.838H945.094Z" fill="#414E68"/>
</g>
<defs>
<clipPath id="clip0_42_866">
<rect width="91.4939" height="64.1313" fill="white" transform="translate(139.379 155.625)"/>
</clipPath>
<clipPath id="clip1_42_866">
<rect width="91.4939" height="64.1823" fill="white" transform="translate(137.668 329.207)"/>
</clipPath>
<clipPath id="clip2_42_866">
<rect width="50.4499" height="38.412" fill="white" transform="translate(76.1023 230.873)"/>
</clipPath>
<clipPath id="clip3_42_866">
<rect width="50.4499" height="42.7728" fill="white" transform="translate(215.481 430.962)"/>
</clipPath>
<clipPath id="clip4_42_866">
<rect width="50.4499" height="41.5429" fill="white" transform="translate(103.465 430.962)"/>
</clipPath>
<clipPath id="clip5_42_866">
<rect width="50.4499" height="38.4788" fill="white" transform="translate(22.2322 174.437)"/>
</clipPath>
<clipPath id="clip6_42_866">
<rect width="68.4067" height="86.6485" fill="white" transform="translate(505.354 330.917)"/>
</clipPath>
<clipPath id="clip7_42_866">
<rect width="59.8558" height="38.0174" fill="white" transform="translate(76.1023 112.871)"/>
</clipPath>
<clipPath id="clip8_42_866">
<rect width="153.915" height="127.668" fill="white" transform="translate(654.994 212.061)"/>
</clipPath>
<clipPath id="clip9_42_866">
<rect width="132.538" height="106.294" fill="white" transform="translate(263.366 218.046)"/>
</clipPath>
<clipPath id="clip10_42_866">
<rect width="108.596" height="29.208" fill="white" transform="translate(868.765 170.451)"/>
</clipPath>
</defs>
</svg>
